<?xml version="1.0" encoding="utf-8"?>
<!-- Generator: Adobe Illustrator 24.1.1, SVG Export Plug-In . SVG Version: 6.00 Build 0)  -->
<svg version="1.1" id="Capa_1" xmlns="http://www.w3.org/2000/svg" xmlns:xlink="http://www.w3.org/1999/xlink" x="0px" y="0px"
	 viewBox="0 0 512 512" style="enable-background:new 0 0 512 512;" xml:space="preserve">
<style type="text/css">
	.st0{fill:#B7000E;}
</style>
<g>
	<g>
		<g>
			<path class="st0" d="M478,262.6c-2.1-4.2-2.1-9,0-13.3l19.1-39.1c10.6-21.8,2.2-47.7-19.2-59l-38.4-20.4c-4.1-2.2-7-6.1-7.8-10.7
				l-7.5-42.8c-4.2-23.8-26.2-39.9-50.2-36.5L330.9,47c-4.6,0.7-9.2-0.8-12.6-4.1L287,12.6c-17.4-16.8-44.7-16.8-62.1,0l-31.3,30.2
				c-3.4,3.3-8,4.8-12.6,4.1l-43.1-6.1c-24-3.4-46,12.6-50.2,36.5l-7.5,42.8c-0.8,4.6-3.7,8.5-7.8,10.7l-38.4,20.4
				c-21.4,11.3-29.8,37.3-19.2,59L34,249.4c2.1,4.2,2.1,9,0,13.3l-19.1,39.1c-10.6,21.8-2.2,47.7,19.2,59l38.4,20.4
				c4.1,2.2,7,6.1,7.8,10.7l7.5,42.8c3.8,21.7,22.4,36.9,43.8,36.9c2.1,0,4.2-0.1,6.4-0.5l43.1-6.1c4.6-0.7,9.2,0.8,12.6,4.1
				l31.3,30.2c8.7,8.4,19.9,12.6,31,12.6c11.2,0,22.3-4.2,31-12.6l31.3-30.2c3.4-3.3,8-4.8,12.6-4.1l43.1,6.1
				c24,3.4,46-12.6,50.2-36.5l7.5-42.8c0.8-4.6,3.7-8.5,7.8-10.7l38.4-20.4c21.4-11.3,29.8-37.3,19.2-59L478,262.6z M196.9,123.1
				c29.9,0,54.1,24.3,54.1,54.1s-24.3,54.1-54.1,54.1s-54.1-24.3-54.1-54.1S167.1,123.1,196.9,123.1z M169,363.9
				c-2.9,2.9-6.7,4.3-10.4,4.3c-3.8,0-7.6-1.4-10.4-4.3c-5.8-5.8-5.8-15.1,0-20.9L343,148.1c5.8-5.8,15.1-5.8,20.9,0
				c5.8,5.8,5.8,15.1,0,20.9L169,363.9z M315.1,388.9c-29.9,0-54.1-24.3-54.1-54.1s24.3-54.1,54.1-54.1c29.9,0,54.1,24.3,54.1,54.1
				S344.9,388.9,315.1,388.9z"/>
		</g>
	</g>
	<g>
		<g>
			<path class="st0" d="M315.1,310.1c-13.6,0-24.6,11-24.6,24.6s11,24.6,24.6,24.6c13.6,0,24.6-11,24.6-24.6
				S328.6,310.1,315.1,310.1z"/>
		</g>
	</g>
	<g>
		<g>
			<path class="st0" d="M196.9,152.6c-13.6,0-24.6,11-24.6,24.6s11,24.6,24.6,24.6c13.6,0,24.6-11,24.6-24.6
				C221.5,163.7,210.5,152.6,196.9,152.6z"/>
		</g>
	</g>
</g>
</svg>
