<?xml version="1.0" ?><!DOCTYPE svg  PUBLIC '-//W3C//DTD SVG 1.1//EN'  'http://www.w3.org/Graphics/SVG/1.1/DTD/svg11.dtd'><svg height="512px" style="enable-background:new 0 0 512 512;" version="1.1" viewBox="0 0 512 512" width="512px" xml:space="preserve" xmlns="http://www.w3.org/2000/svg" xmlns:xlink="http://www.w3.org/1999/xlink"><g id="phone_x2C__call__x2C__text__x2C__sms_x2C__dial__x2C_"><g><linearGradient gradientUnits="userSpaceOnUse" id="SVGID_1_" x1="37.4321" x2="474.5674" y1="274.4785" y2="274.4785"><stop offset="0" style="stop-color:#610000"/><stop offset="0.0242" style="stop-color:#790501"/><stop offset="0.0583" style="stop-color:#940A02"/><stop offset="0.0975" style="stop-color:#AA0E03"/><stop offset="0.1433" style="stop-color:#BB1103"/><stop offset="0.1999" style="stop-color:#C61304"/><stop offset="0.2794" style="stop-color:#CD1504"/><stop offset="0.5" style="stop-color:#CF1504"/><stop offset="0.7297" style="stop-color:#CD1504"/><stop offset="0.8124" style="stop-color:#C61304"/><stop offset="0.8714" style="stop-color:#BB1003"/><stop offset="0.9191" style="stop-color:#AA0C02"/><stop offset="0.9595" style="stop-color:#940701"/><stop offset="0.9951" style="stop-color:#790100"/><stop offset="1" style="stop-color:#750000"/></linearGradient><path d="M308.51,350.338    c11.289,9.236,27.428,7.188,36.67-1.869l18.659-18.193c11.572-9.054,25.287-8.865,34.436,0.476l70.263,69.785    c30.876,31.445-66.442,95.557-74.646,95.464l0,0C294.42,494.781,36.594,231.278,37.434,131.807l0,0    c0.094-8.204,66.251-104.036,97.143-72.504l68.203,71.76c9.149,9.232,8.959,23.041-0.273,34.424l-18.573,18.207    c-9.234,9.14-11.668,25.192-2.611,36.66C213.419,262.536,267.066,317.308,308.51,350.338L308.51,350.338z" style="fill-rule:evenodd;clip-rule:evenodd;fill:url(#SVGID_1_);"/><linearGradient gradientUnits="userSpaceOnUse" id="SVGID_2_" x1="256.251" x2="452.8594" y1="106.9346" y2="106.9346"><stop offset="0" style="stop-color:#11A235"/><stop offset="0.2781" style="stop-color:#0D902D"/><stop offset="0.8338" style="stop-color:#036118"/><stop offset="1" style="stop-color:#005211"/></linearGradient><path d="M256.251,94.484c0,27.427,13.068,50.019,37.233,64.569    c-1.585,12.972-9.704,29.108-20.995,38.815c27.533-1.68,50.113-9.707,64.667-24.261c12.413,0,19.684,2.424,33.588,0.558    c47.122-6.067,82.115-38.908,82.115-79.682C452.859-10.486,256.251-9.836,256.251,94.484L256.251,94.484z" style="fill-rule:evenodd;clip-rule:evenodd;fill:url(#SVGID_2_);"/><path d="M401.905,79.741c8.596,0,15.676,6.999,15.676,15.678    c0,6.063-3.451,11.289-8.396,13.902c-1.677,0.932-3.546,1.489-5.589,1.677h-0.095h-0.097c-0.47,0.095-1.027,0.095-1.5,0.095    c-1.49,0-2.885-0.189-4.29-0.554l0,0l0,0c-6.987-1.773-11.471-7.566-11.471-15.596c0-3.626,1.302-6.891,3.631-9.42    C392.674,81.975,396.964,79.741,401.905,79.741L401.905,79.741z" style="fill-rule:evenodd;clip-rule:evenodd;fill:#FFFFFF;"/><path d="M354.511,79.741c8.677,0,15.675,6.999,15.675,15.678    c0,2.895-0.744,5.603-2.057,7.932c-2.516,4.753-7.177,7.647-12.591,7.742c-0.283,0-0.647,0-1.027,0    c-8.679,0-15.676-6.999-15.676-15.674C338.835,86.74,345.832,79.741,354.511,79.741L354.511,79.741z" style="fill-rule:evenodd;clip-rule:evenodd;fill:#FFFFFF;"/><path d="M307.199,79.741c3.923,0,7.469,1.491,10.272,3.83    c3.534,2.613,5.687,6.717,5.687,11.372c0,8.69-5.131,14.757-13.158,15.961c-0.935,0.094-1.868,0.189-2.801,0.189    c-8.679,0-15.678-6.999-15.678-15.674C291.521,86.74,298.521,79.741,307.199,79.741L307.199,79.741z" style="fill-rule:evenodd;clip-rule:evenodd;fill:#FFFFFF;"/></g></g><g id="Layer_1"/></svg>